#!OML:ASF H:\BabyWalks\Project 1\Capture day 1\Session 1\baby.ASF
:FULLY-SPECIFIED
:DEGREES
848
root -9.47878 17.3952 0.504841 374.777 -84.1136 -384.214
lowerback 8.5557 0.60834 3.47519
upperback 6.7194 0.732729 2.18448
thorax 2.1998 0.329516 0.258521
lowerneck -1.86878 2.0518 4.39324
upperneck 32.9212 2.20811 -4.5413
head 11.015 0.533342 -2.33075
rclavicle 1.11319e-014 1.27222e-014
rhumerus -71.667 -8.09919 -31.8115
rradius 107.867
rwrist -6.36491
rhand -6.90587 -11.6916
rfingers 7.12502
rthumb 18.9614 -40.7874
lclavicle 1.11319e-014 1.27222e-014
lhumerus -66.8835 -0.623981 41.7679
lradius 107.69
lwrist 9.25286
lhand -0.0314297 -0.51413
lfingers 7.12502
lthumb 25.5603 27.7909
rfemur 7.42129 11.9629 21.2172
rtibia 26.2505
rfoot -28.1204 -27.3822
rtoes 10.8426
lfemur 2.48305 -2.91446 -17.233
ltibia 31.6406
lfoot -24.3898 8.57067
ltoes -3.83129
849
root -9.47935 17.3934 0.507897 374.155 -83.8855 -383.672
lowerback 8.68522 0.528593 3.36242
upperback 6.79993 0.616422 2.23691
thorax 2.20827 0.263893 0.382724
lowerneck -1.71568 2.11452 4.36206
upperneck 32.9671 2.30429 -4.57165
head 11.0085 0.568252 -2.32914
rclavicle 3.97569e-015 1.59028e-015
rhumerus -72.1678 -9.32057 -31.0748
rradius 108.12
rwrist -6.73592
rhand -7.78604 -12.1367
rfingers 7.12502
rthumb 18.1147 -41.3132
lclavicle 3.97569e-015 1.59028e-015
lhumerus -67.3569 0.0220621 41.7404
lradius 108.25
lwrist 9.73375
lhand -0.1385 -0.26055
lfingers 7.12502
lthumb 25.4577 28.0592
rfemur 7.64942 12.1146 21.3527
rtibia 26.1252
rfoot -28.3407 -27.6238
rtoes 11.069
lfemur 2.47021 -2.89734 -17.1832
ltibia 31.739
lfoot -24.4213 8.33205
ltoes -3.84517
850
root -9.4776 17.3924 0.510703 373.639 -83.6746 -383.242
lowerback 8.82937 0.454065 3.25706
upperback 6.87712 0.508508 2.27226
thorax 2.20638 0.202961 0.48481
lowerneck -1.60146 2.18079 4.36305
upperneck 33.0505 2.39556 -4.58872
head 11.0248 0.605326 -2.32981
rclavicle 1.20265e-014 -1.74931e-014
rhumerus -72.2717 -10.2799 -30.689
rradius 108.29
rwrist -6.90731
rhand -8.9176 -12.6209
rfingers 7.12502
rthumb 17.0258 -41.8948
lclavicle 1.20265e-014 -1.74931e-014
lhumerus -67.525 0.446371 41.8637
lradius 108.755
lwrist 10.2085
lhand -0.31654 -0.005077
lfingers 7.12502
lthumb 25.2871 28.3389
rfemur 7.85012 12.1508 21.4395
rtibia 26.0046
rfoot -28.4591 -27.7622
rtoes 11.2106
lfemur 2.46325 -2.88673 -17.1386
ltibia 31.8239
lfoot -24.4305 8.12202
ltoes -3.87307
851
root -9.47336 17.3925 0.513747 373.177 -83.4889 -382.86
lowerback 8.98083 0.386265 3.15233
upperback 6.94735 0.410615 2.29121
thorax 2.19405 0.147433 0.569179
lowerneck -1.52295 2.24853 4.38752
upperneck 33.168 2.48012 -4.59206
head 11.0618 0.642773 -2.33109
rclavicle -6.55989e-015 1.19271e-014
rhumerus -71.9815 -10.9826 -30.6489
rradius 108.366
rwrist -6.8764
rhand -10.1605 -13.0978
rfingers 7.12502
rthumb 15.8291 -42.4707
lclavicle -6.55989e-015 1.19271e-014
lhumerus -67.3965 0.652006 42.1452
lradius 109.196
lwrist 10.6063
lhand -0.540019 0.242829
lfingers 7.12502
lthumb 25.073 28.6169
rfemur 8.00779 12.0623 21.4584
rtibia 25.8922
rfoot -28.4633 -27.7862
rtoes 11.264
lfemur 2.4539 -2.88345 -17.1111
ltibia 31.8923
lfoot -24.416 7.9488
ltoes -3.90807
852
root -9.46662 17.3938 0.51729 372.753 -83.3356 -382.504
lowerback 9.13136 0.329918 3.04633
upperback 7.0098 0.328554 2.29824
thorax 2.17479 0.100161 0.641131
lowerneck -1.47965 2.31217 4.41927
upperneck 33.3065 2.55318 -4.5823
head 11.1136 0.676778 -2.33034
rclavicle 1.15295e-014 5.56597e-015
rhumerus -71.3245 -11.4461 -30.9137
rradius 108.342
rwrist -6.67264
rhand -11.3529 -13.5274
rfingers 7.12502
rthumb 14.6805 -42.9876
lclavicle 1.15295e-014 5.56597e-015
lhumerus -66.9685 0.65605 42.5868
lradius 109.54
lwrist 10.8655
lhand -0.77203 0.449885
lfingers 7.12502
lthumb 24.8507 28.8548
rfemur 8.1113 11.8647 21.4069
rtibia 25.7948
rfoot -28.3555 -27.7054
rtoes 11.2216
lfemur 2.43674 -2.88464 -17.1057
ltibia 31.9411
lfoot -24.3741 7.81676
ltoes -3.95084
853
root -9.45745 17.3964 0.521548 372.386 -83.2225 -382.19
lowerback 9.27665 0.286374 2.93611
upperback 7.0634 0.263702 2.29853
thorax 2.14962 0.0616503 0.707523
lowerneck -1.46486 2.37348 4.44854
upperneck 33.4603 2.61956 -4.56255
head 11.1768 0.708147 -2.32637
rclavicle -2.56432e-014 -1.19271e-014
rhumerus -70.3467 -11.6798 -31.4332
rradius 108.23
rwrist -6.33903
rhand -12.3586 -13.8557
rfingers 7.12502
rthumb 13.7114 -43.3839
lclavicle -2.56432e-014 -1.19271e-014
lhumerus -66.2629 0.471059 43.1769
lradius 109.768
lwrist 10.9411
lhand -0.993857 0.58953
lfingers 7.12502
lthumb 24.6381 29.0236
rfemur 8.15567 11.5686 21.2863
rtibia 25.7165
rfoot -28.1425 -27.5207
rtoes 11.0978
lfemur 2.40948 -2.8816 -17.1214
ltibia 31.9711
lfoot -24.306 7.72674
ltoes -4.00022
854
root -9.44557 17.4001 0.527082 372.07 -83.1518 -381.905
lowerback 9.41439 0.256884 2.83094
upperback 7.10682 0.218393 2.29102
thorax 2.11842 0.0335044 0.76179
lowerneck -1.46935 2.42633 4.49347
upperneck 33.6167 2.67458 -4.55224
head 11.2449 0.735214 -2.32973
rclavicle 2.28602e-014 9.14409e-015
rhumerus -69.1142 -11.7003 -32.1542
rradius 108.051
rwrist -5.94091
rhand -13.0893 -14.0554
rfingers 7.12502
rthumb 13.0071 -43.6299
lclavicle 2.28602e-014 9.14409e-015
lhumerus -65.2886 0.110971 43.8955
lradius 109.866
lwrist 10.8265
lhand -1.17848 0.659401
lfingers 7.12502
lthumb 24.4611 29.1175
rfemur 8.13338 11.18 21.0949
rtibia 25.6615
rfoot -27.8297 -27.2342
rtoes 10.8888
lfemur 2.36557 -2.87447 -17.1614
ltibia 31.9842
lfoot -24.2132 7.68
ltoes -4.04653
855
root -9.43079 17.405 0.534117 371.839 -83.1277 -381.683
lowerback 9.54576 0.246348 2.74397
upperback 7.14301 0.199786 2.27618
thorax 2.08368 0.0197526 0.796433
lowerneck -1.50702 2.46887 4.53067
upperneck 33.7746 2.71328 -4.53175
head 11.3192 0.755237 -2.32931
rclavicle -1.33186e-014 -3.53837e-014
rhumerus -67.6708 -11.5513 -33.0143
rradius 107.806
rwrist -5.53832
rhand -13.5055 -14.1037
rfingers 7.12502
rthumb 12.6058 -43.7034
lclavicle -1.33186e-014 -3.53837e-014
lhumerus -64.0516 -0.412452 44.7206
lradius 109.826
lwrist 10.547
lhand -1.306 0.670738
lfingers 7.12502
lthumb 24.3389 29.1453
rfemur 8.04509 10.7279 20.8475
rtibia 25.6303
rfoot -27.4329 -26.868
rtoes 10.6047
lfemur 2.29829 -2.85086 -17.2204
ltibia 31.9859
lfoot -24.0951 7.67614
ltoes -4.09577
856
root -9.4129 17.4111 0.542693 371.69 -83.1517 -381.518
lowerback 9.67048 0.255191 2.67539
upperback 7.17408 0.2083 2.25449
thorax 2.04761 0.0205844 0.811667
lowerneck -1.55612 2.49577 4.59381
upperneck 33.909 2.73578 -4.53738
head 11.3863 0.769108 -2.34409
rclavicle -1.97791e-014 1.19271e-014
rhumerus -66.0583 -11.2571 -33.9764
rradius 107.511
rwrist -5.16159
rhand -13.6407 -14.0143
rfingers 7.12502
rthumb 12.4756 -43.6219
lclavicle -1.97791e-014 1.19271e-014
lhumerus -62.5689 -1.0776 45.6246
lradius 109.645
lwrist 10.1547
lhand -1.37053 0.623943
lfingers 7.12502
lthumb 24.277 29.1068
rfemur 7.89099 10.2317 20.5532
rtibia 25.6248
rfoot -26.9682 -26.4378
rtoes 10.2545
lfemur 2.20481 -2.81083 -17.2981
ltibia 31.9803
lfoot -23.9559 7.71197
ltoes -4.14361
